<?xml version="1.0" standalone="no"?>
<!DOCTYPE svg PUBLIC "-//W3C//DTD SVG 20010904//EN"
 "http://www.w3.org/TR/2001/REC-SVG-20010904/DTD/svg10.dtd">
<svg version="1.0" xmlns="http://www.w3.org/2000/svg"
 width="92.000000pt" height="91.000000pt" viewBox="0 0 92.000000 91.000000"
 preserveAspectRatio="xMidYMid meet">

<g transform="translate(0.000000,91.000000) scale(0.100000,-0.100000)"
fill="#000000" stroke="none">
<path d="M410 705 c-28 -58 -52 -105 -54 -105 -8 0 -161 -20 -193 -26 -19 -3
-33 -11 -33 -19 0 -12 64 -78 134 -137 l29 -25 -22 -113 c-15 -74 -19 -116
-13 -122 7 -7 45 9 111 47 l101 57 101 -57 c71 -40 104 -54 111 -47 8 8 4 44
-11 124 l-23 112 29 25 c84 72 133 121 133 134 0 9 -12 18 -27 21 -22 4 -188
26 -200 26 -2 0 -26 47 -53 105 -27 58 -54 105 -60 105 -6 0 -33 -47 -60 -105z"/>
</g>
</svg>
