<?xml version="1.0" standalone="no"?>
<!DOCTYPE svg PUBLIC "-//W3C//DTD SVG 20010904//EN"
 "http://www.w3.org/TR/2001/REC-SVG-20010904/DTD/svg10.dtd">
<svg version="1.0" xmlns="http://www.w3.org/2000/svg"
 width="512.000000pt" height="512.000000pt" viewBox="0 0 512.000000 512.000000"
 preserveAspectRatio="xMidYMid meet">

<g transform="translate(0.000000,512.000000) scale(0.100000,-0.100000)"
fill="#000000" stroke="none">
<path d="M3886 4939 c-156 -21 -298 -69 -524 -176 -63 -29 -116 -53 -118 -53
-2 0 -70 -31 -150 -70 -81 -38 -148 -70 -149 -70 -2 0 -81 -38 -177 -83 -95
-46 -270 -130 -388 -187 -295 -142 -1278 -638 -1594 -804 -142 -75 -298 -162
-345 -194 -211 -141 -353 -341 -402 -567 -18 -86 -16 -275 5 -360 32 -135 91
-254 176 -359 111 -135 210 -203 590 -404 420 -222 1506 -765 1920 -959 41
-20 140 -67 219 -104 79 -38 145 -69 146 -69 2 0 57 -25 122 -56 389 -185 526
-231 744 -249 249 -21 544 78 744 249 118 101 193 192 261 320 91 171 129 327
128 531 0 155 -14 244 -61 384 -87 261 -239 492 -508 770 l-127 131 133 137
c73 76 159 172 192 213 289 363 414 739 363 1090 -60 407 -309 728 -679 874
-147 58 -370 86 -521 65z m241 -319 c252 -34 467 -188 581 -415 103 -207 109
-453 15 -690 -77 -195 -206 -376 -429 -604 l-132 -134 -33 27 c-845 687 -1582
822 -2010 369 -155 -165 -232 -371 -231 -623 1 -188 45 -338 148 -501 34 -55
135 -161 194 -204 231 -170 542 -207 886 -106 145 43 173 54 349 141 205 101
455 265 663 435 l33 27 91 -89 c202 -196 350 -391 440 -579 110 -230 128 -463
51 -677 -118 -331 -458 -543 -796 -498 -153 21 -277 70 -766 302 -68 33 -125
59 -126 59 -2 0 -97 45 -212 101 -114 55 -280 134 -368 177 -171 81 -1303 649
-1320 662 -5 4 -95 51 -198 104 -283 146 -352 189 -440 277 -59 59 -85 94
-112 151 -109 238 -40 498 175 658 68 51 216 135 408 234 59 30 181 93 272
141 307 161 1341 674 1632 809 51 24 151 71 222 105 70 33 130 61 132 61 2 0
41 18 86 41 107 52 353 160 443 194 67 25 191 52 247 54 15 1 62 -4 105 -9z
m-1142 -1553 c203 -55 406 -150 623 -293 119 -79 291 -205 291 -214 0 -9 -159
-125 -294 -215 -140 -94 -404 -228 -525 -269 -167 -55 -360 -74 -475 -47 -188
45 -324 185 -375 387 -64 249 47 523 252 623 105 51 158 62 293 57 85 -3 147
-12 210 -29z"/>
</g>
</svg>
